<svg xmlns="http://www.w3.org/2000/svg" xmlns:xlink="http://www.w3.org/1999/xlink" width="512" zoomAndPan="magnify" viewBox="0 0 384 383.999986" height="512" preserveAspectRatio="xMidYMid meet" version="1.0"><defs><clipPath id="dabbc7b163"><path d="M 3 0.320312 L 355 0.320312 L 355 367 L 3 367 Z M 3 0.320312 " clip-rule="nonzero"/></clipPath><clipPath id="b2a040c3d6"><path d="M 238.8125 11.355469 C 257.9375 18.65625 275.621094 29.277344 291.046875 42.734375 L 291.355469 43.007812 C 306.992188 56.644531 320.121094 72.910156 330.160156 91.070312 L 330.601562 91.871094 C 340.875 110.460938 347.910156 130.660156 351.40625 151.605469 C 354.90625 172.566406 354.921875 193.953125 351.453125 214.917969 L 351.335938 215.640625 C 347.886719 236.484375 340.859375 256.574219 330.554688 275.015625 L 330.28125 275.515625 C 320.160156 293.632812 306.992188 309.867188 291.355469 323.511719 L 291.046875 323.78125 C 275.621094 337.238281 257.9375 347.863281 238.8125 355.160156 C 219.699219 362.457031 199.414062 366.195312 178.953125 366.195312 L 178.574219 366.195312 C 158.113281 366.195312 137.828125 362.457031 118.714844 355.160156 C 99.589844 347.863281 81.90625 337.238281 66.480469 323.78125 L 66.167969 323.511719 C 50.53125 309.867188 37.367188 293.632812 27.246094 275.515625 L 26.96875 275.015625 C 16.667969 256.574219 9.640625 236.484375 6.191406 215.640625 L 6.074219 214.917969 C 2.605469 193.953125 2.621094 172.566406 6.117188 151.605469 C 9.613281 130.660156 16.652344 110.460938 26.925781 91.871094 L 27.367188 91.070312 C 37.40625 72.910156 50.535156 56.644531 66.167969 43.007812 L 66.480469 42.734375 C 81.90625 29.277344 99.589844 18.65625 118.714844 11.355469 C 137.828125 4.0625 158.113281 0.320312 178.574219 0.320312 L 178.953125 0.320312 C 199.414062 0.320312 219.699219 4.0625 238.8125 11.355469 Z M 238.8125 11.355469 " clip-rule="nonzero"/></clipPath><clipPath id="5f8d66616b"><path d="M 0 0.320312 L 352 0.320312 L 352 366.398438 L 0 366.398438 Z M 0 0.320312 " clip-rule="nonzero"/></clipPath><clipPath id="e40637b569"><path d="M 235.8125 11.355469 C 254.9375 18.65625 272.621094 29.277344 288.046875 42.734375 L 288.355469 43.007812 C 303.992188 56.644531 317.121094 72.910156 327.160156 91.070312 L 327.601562 91.871094 C 337.875 110.460938 344.910156 130.660156 348.40625 151.605469 C 351.90625 172.566406 351.921875 193.953125 348.453125 214.917969 L 348.335938 215.640625 C 344.886719 236.484375 337.859375 256.574219 327.554688 275.015625 L 327.28125 275.515625 C 317.160156 293.632812 303.992188 309.867188 288.355469 323.511719 L 288.046875 323.78125 C 272.621094 337.238281 254.9375 347.863281 235.8125 355.160156 C 216.699219 362.457031 196.414062 366.195312 175.953125 366.195312 L 175.574219 366.195312 C 155.113281 366.195312 134.828125 362.457031 115.714844 355.160156 C 96.589844 347.863281 78.90625 337.238281 63.480469 323.78125 L 63.167969 323.511719 C 47.53125 309.867188 34.367188 293.632812 24.246094 275.515625 L 23.96875 275.015625 C 13.667969 256.574219 6.640625 236.484375 3.191406 215.640625 L 3.074219 214.917969 C -0.394531 193.953125 -0.378906 172.566406 3.117188 151.605469 C 6.613281 130.660156 13.652344 110.460938 23.925781 91.871094 L 24.367188 91.070312 C 34.40625 72.910156 47.535156 56.644531 63.167969 43.007812 L 63.480469 42.734375 C 78.90625 29.277344 96.589844 18.65625 115.714844 11.355469 C 134.828125 4.0625 155.113281 0.320312 175.574219 0.320312 L 175.953125 0.320312 C 196.414062 0.320312 216.699219 4.0625 235.8125 11.355469 Z M 235.8125 11.355469 " clip-rule="nonzero"/></clipPath><clipPath id="501d3bebae"><rect x="0" width="352" y="0" height="367"/></clipPath><clipPath id="89a92194f1"><path d="M 94.890625 43 L 292 43 L 292 332 L 94.890625 332 Z M 94.890625 43 " clip-rule="nonzero"/></clipPath><clipPath id="8ba2ab73ac"><path d="M 243 246 L 292 246 L 292 297 L 243 297 Z M 243 246 " clip-rule="nonzero"/></clipPath><clipPath id="e00d6e71cb"><path d="M 311.6875 273.292969 L 228.195312 350.308594 L 184.183594 302.597656 L 267.679688 225.582031 Z M 311.6875 273.292969 " clip-rule="nonzero"/></clipPath><clipPath id="587127bdd2"><path d="M 311.6875 273.292969 L 228.195312 350.308594 L 184.183594 302.597656 L 267.679688 225.582031 Z M 311.6875 273.292969 " clip-rule="nonzero"/></clipPath><clipPath id="22ff6ec981"><path d="M 215 273 L 263 273 L 263 323 L 215 323 Z M 215 273 " clip-rule="nonzero"/></clipPath><clipPath id="9d89a4b1ac"><path d="M 311.6875 273.292969 L 228.195312 350.308594 L 184.183594 302.597656 L 267.679688 225.582031 Z M 311.6875 273.292969 " clip-rule="nonzero"/></clipPath><clipPath id="fb8673bdcc"><path d="M 311.6875 273.292969 L 228.195312 350.308594 L 184.183594 302.597656 L 267.679688 225.582031 Z M 311.6875 273.292969 " clip-rule="nonzero"/></clipPath><clipPath id="4be138c85f"><path d="M 186 299 L 235 299 L 235 349 L 186 349 Z M 186 299 " clip-rule="nonzero"/></clipPath><clipPath id="94661aec44"><path d="M 311.6875 273.292969 L 228.195312 350.308594 L 184.183594 302.597656 L 267.679688 225.582031 Z M 311.6875 273.292969 " clip-rule="nonzero"/></clipPath><clipPath id="56ece69643"><path d="M 311.6875 273.292969 L 228.195312 350.308594 L 184.183594 302.597656 L 267.679688 225.582031 Z M 311.6875 273.292969 " clip-rule="nonzero"/></clipPath><clipPath id="74d28fa421"><rect x="0" width="357" y="0" height="368"/></clipPath></defs><rect x="-38.4" width="460.8" fill="#ffffff" y="-38.399999" height="460.799983" fill-opacity="1"/><rect x="-38.4" width="460.8" fill="#ffffff" y="-38.399999" height="460.799983" fill-opacity="1"/><g transform="matrix(1, 0, 0, 1, 9, 8)"><g clip-path="url(#74d28fa421)"><g clip-path="url(#dabbc7b163)"><g clip-path="url(#b2a040c3d6)"><g transform="matrix(1, 0, 0, 1, 3, 0)"><g clip-path="url(#501d3bebae)"><g clip-path="url(#5f8d66616b)"><g clip-path="url(#e40637b569)"><path fill="#673ee6" d="M -2.164062 0.320312 L 353.691406 0.320312 L 353.691406 367.292969 L -2.164062 367.292969 Z M -2.164062 0.320312 " fill-opacity="1" fill-rule="nonzero"/></g></g></g></g></g></g><g clip-path="url(#89a92194f1)"><path fill="#ffffff" d="M 216.59375 134.742188 L 291.476562 195.90625 L 179.632812 195.90625 L 94.890625 331.515625 L 94.890625 216.082031 L 145.722656 134.742188 Z M 291.476562 104.164062 L 216.59375 43 L 94.890625 43 L 94.890625 158.402344 L 128.800781 104.164062 Z M 291.476562 104.164062 " fill-opacity="1" fill-rule="nonzero"/></g><g clip-path="url(#8ba2ab73ac)"><g clip-path="url(#e00d6e71cb)"><g clip-path="url(#587127bdd2)"><path fill="#ffde59" d="M 279.242188 265.351562 L 278.242188 290.097656 C 278.230469 290.472656 278.25 290.847656 278.308594 291.21875 C 278.367188 291.589844 278.460938 291.949219 278.589844 292.304688 C 278.722656 292.65625 278.882812 292.992188 279.078125 293.3125 C 279.277344 293.632812 279.5 293.933594 279.757812 294.207031 C 280.011719 294.484375 280.289062 294.734375 280.59375 294.953125 C 280.898438 295.175781 281.21875 295.363281 281.5625 295.523438 C 281.902344 295.679688 282.253906 295.804688 282.621094 295.890625 C 282.984375 295.980469 283.355469 296.03125 283.730469 296.046875 C 284.105469 296.0625 284.480469 296.039062 284.851562 295.980469 C 285.222656 295.921875 285.585938 295.828125 285.9375 295.699219 C 286.289062 295.570312 286.625 295.40625 286.945312 295.210938 C 287.265625 295.015625 287.566406 294.789062 287.839844 294.535156 C 288.117188 294.28125 288.367188 294 288.585938 293.699219 C 288.808594 293.394531 289 293.070312 289.15625 292.730469 C 289.3125 292.390625 289.4375 292.035156 289.523438 291.671875 C 289.613281 291.304688 289.664062 290.933594 289.679688 290.558594 L 291.140625 254.378906 C 291.15625 254.003906 291.132812 253.628906 291.074219 253.257812 C 291.015625 252.886719 290.921875 252.523438 290.792969 252.171875 C 290.664062 251.820312 290.5 251.484375 290.304688 251.164062 C 290.109375 250.84375 289.882812 250.542969 289.628906 250.269531 C 289.375 249.992188 289.09375 249.742188 288.789062 249.523438 C 288.488281 249.300781 288.164062 249.109375 287.824219 248.953125 C 287.480469 248.796875 287.128906 248.671875 286.765625 248.585938 C 286.398438 248.496094 286.027344 248.445312 285.652344 248.429688 L 249.472656 246.96875 C 249.09375 246.953125 248.722656 246.976562 248.351562 247.035156 C 247.980469 247.09375 247.617188 247.1875 247.265625 247.316406 C 246.914062 247.445312 246.578125 247.609375 246.253906 247.804688 C 245.933594 248 245.636719 248.226562 245.359375 248.480469 C 245.085938 248.734375 244.835938 249.015625 244.613281 249.320312 C 244.394531 249.621094 244.203125 249.945312 244.046875 250.285156 C 243.890625 250.628906 243.765625 250.980469 243.679688 251.34375 C 243.589844 251.710938 243.539062 252.082031 243.523438 252.457031 C 243.507812 252.832031 243.53125 253.203125 243.585938 253.578125 C 243.644531 253.949219 243.738281 254.308594 243.871094 254.660156 C 244 255.015625 244.164062 255.351562 244.359375 255.671875 C 244.554688 255.992188 244.78125 256.289062 245.035156 256.566406 C 245.289062 256.84375 245.566406 257.089844 245.871094 257.3125 C 246.175781 257.535156 246.5 257.722656 246.839844 257.878906 C 247.179688 258.039062 247.535156 258.160156 247.898438 258.25 C 248.265625 258.335938 248.632812 258.390625 249.007812 258.40625 L 273.757812 259.40625 C 274.132812 259.421875 274.503906 259.472656 274.867188 259.5625 C 275.234375 259.648438 275.585938 259.773438 275.929688 259.929688 C 276.269531 260.085938 276.589844 260.277344 276.894531 260.496094 C 277.199219 260.71875 277.476562 260.96875 277.730469 261.242188 C 277.988281 261.519531 278.210938 261.816406 278.40625 262.136719 C 278.601562 262.457031 278.765625 262.796875 278.894531 263.148438 C 279.023438 263.5 279.121094 263.863281 279.179688 264.234375 C 279.234375 264.605469 279.257812 264.976562 279.242188 265.351562 Z M 279.242188 265.351562 " fill-opacity="1" fill-rule="nonzero"/></g></g></g><g clip-path="url(#22ff6ec981)"><g clip-path="url(#9d89a4b1ac)"><g clip-path="url(#fb8673bdcc)"><path fill="#ffde59" d="M 250.914062 291.484375 L 249.914062 316.230469 C 249.898438 316.605469 249.921875 316.980469 249.980469 317.351562 C 250.039062 317.722656 250.132812 318.082031 250.261719 318.4375 C 250.390625 318.789062 250.554688 319.125 250.75 319.445312 C 250.945312 319.765625 251.171875 320.066406 251.425781 320.339844 C 251.679688 320.617188 251.960938 320.867188 252.261719 321.085938 C 252.566406 321.308594 252.890625 321.496094 253.230469 321.65625 C 253.570312 321.8125 253.925781 321.9375 254.289062 322.023438 C 254.65625 322.113281 255.027344 322.164062 255.402344 322.179688 C 255.777344 322.195312 256.148438 322.171875 256.519531 322.113281 C 256.890625 322.054688 257.253906 321.960938 257.605469 321.832031 C 257.960938 321.703125 258.296875 321.539062 258.617188 321.34375 C 258.9375 321.148438 259.234375 320.921875 259.511719 320.667969 C 259.789062 320.414062 260.035156 320.132812 260.257812 319.828125 C 260.480469 319.527344 260.667969 319.203125 260.828125 318.863281 C 260.984375 318.519531 261.105469 318.167969 261.195312 317.804688 C 261.28125 317.4375 261.335938 317.066406 261.351562 316.691406 L 262.808594 280.511719 C 262.824219 280.136719 262.804688 279.761719 262.746094 279.390625 C 262.6875 279.019531 262.59375 278.65625 262.460938 278.304688 C 262.332031 277.953125 262.171875 277.617188 261.972656 277.292969 C 261.777344 276.972656 261.554688 276.675781 261.296875 276.398438 C 261.042969 276.125 260.765625 275.875 260.460938 275.652344 C 260.15625 275.433594 259.835938 275.242188 259.492188 275.085938 C 259.152344 274.929688 258.800781 274.804688 258.433594 274.71875 C 258.070312 274.628906 257.699219 274.578125 257.324219 274.5625 L 221.140625 273.101562 C 220.765625 273.085938 220.394531 273.109375 220.019531 273.167969 C 219.648438 273.226562 219.289062 273.320312 218.9375 273.449219 C 218.582031 273.578125 218.246094 273.742188 217.925781 273.9375 C 217.605469 274.132812 217.308594 274.359375 217.03125 274.613281 C 216.753906 274.867188 216.503906 275.148438 216.285156 275.453125 C 216.0625 275.753906 215.875 276.078125 215.714844 276.417969 C 215.558594 276.757812 215.4375 277.113281 215.347656 277.476562 C 215.257812 277.84375 215.207031 278.214844 215.191406 278.589844 C 215.175781 278.964844 215.199219 279.335938 215.257812 279.707031 C 215.316406 280.078125 215.410156 280.441406 215.539062 280.792969 C 215.667969 281.148438 215.832031 281.484375 216.027344 281.804688 C 216.222656 282.125 216.449219 282.421875 216.703125 282.699219 C 216.957031 282.976562 217.238281 283.222656 217.542969 283.445312 C 217.84375 283.667969 218.167969 283.855469 218.507812 284.011719 C 218.851562 284.171875 219.203125 284.292969 219.566406 284.382812 C 219.933594 284.46875 220.304688 284.523438 220.679688 284.535156 L 245.429688 285.539062 C 245.804688 285.554688 246.175781 285.605469 246.539062 285.695312 C 246.902344 285.78125 247.257812 285.90625 247.597656 286.0625 C 247.9375 286.21875 248.261719 286.410156 248.5625 286.628906 C 248.867188 286.851562 249.148438 287.101562 249.402344 287.375 C 249.65625 287.652344 249.882812 287.949219 250.078125 288.269531 C 250.273438 288.589844 250.4375 288.925781 250.566406 289.28125 C 250.695312 289.632812 250.789062 289.992188 250.847656 290.363281 C 250.90625 290.734375 250.929688 291.109375 250.914062 291.484375 Z M 250.914062 291.484375 " fill-opacity="1" fill-rule="nonzero"/></g></g></g><g clip-path="url(#4be138c85f)"><g clip-path="url(#94661aec44)"><g clip-path="url(#56ece69643)"><path fill="#ffde59" d="M 222.582031 317.617188 L 221.585938 342.363281 C 221.570312 342.738281 221.589844 343.109375 221.648438 343.480469 C 221.707031 343.851562 221.800781 344.214844 221.929688 344.566406 C 222.0625 344.921875 222.222656 345.257812 222.417969 345.578125 C 222.617188 345.898438 222.839844 346.195312 223.097656 346.472656 C 223.351562 346.75 223.628906 346.996094 223.933594 347.21875 C 224.238281 347.441406 224.558594 347.628906 224.902344 347.789062 C 225.242188 347.945312 225.59375 348.066406 225.960938 348.15625 C 226.324219 348.246094 226.695312 348.296875 227.070312 348.3125 C 227.445312 348.324219 227.820312 348.304688 228.191406 348.246094 C 228.5625 348.1875 228.925781 348.09375 229.277344 347.964844 C 229.628906 347.835938 229.964844 347.671875 230.285156 347.476562 C 230.605469 347.28125 230.90625 347.054688 231.183594 346.800781 C 231.457031 346.542969 231.707031 346.265625 231.929688 345.960938 C 232.148438 345.65625 232.339844 345.335938 232.496094 344.996094 C 232.652344 344.652344 232.777344 344.300781 232.863281 343.933594 C 232.953125 343.570312 233.003906 343.199219 233.019531 342.824219 L 234.480469 306.640625 C 234.496094 306.265625 234.472656 305.894531 234.414062 305.523438 C 234.355469 305.152344 234.261719 304.789062 234.132812 304.4375 C 234.003906 304.085938 233.839844 303.746094 233.644531 303.425781 C 233.449219 303.105469 233.222656 302.808594 232.96875 302.53125 C 232.714844 302.253906 232.433594 302.007812 232.128906 301.785156 C 231.828125 301.566406 231.503906 301.375 231.164062 301.21875 C 230.824219 301.058594 230.46875 300.9375 230.105469 300.847656 C 229.738281 300.761719 229.367188 300.710938 228.992188 300.695312 L 192.8125 299.234375 C 192.4375 299.21875 192.0625 299.242188 191.691406 299.300781 C 191.320312 299.355469 190.957031 299.453125 190.605469 299.582031 C 190.253906 299.710938 189.917969 299.875 189.597656 300.070312 C 189.273438 300.265625 188.976562 300.492188 188.699219 300.746094 C 188.425781 301 188.175781 301.28125 187.953125 301.582031 C 187.734375 301.886719 187.542969 302.210938 187.386719 302.550781 C 187.230469 302.890625 187.105469 303.246094 187.019531 303.609375 C 186.929688 303.976562 186.878906 304.34375 186.863281 304.71875 C 186.847656 305.097656 186.871094 305.46875 186.925781 305.839844 C 186.984375 306.210938 187.078125 306.574219 187.210938 306.925781 C 187.339844 307.277344 187.5 307.617188 187.699219 307.9375 C 187.894531 308.257812 188.117188 308.554688 188.375 308.832031 C 188.628906 309.109375 188.90625 309.355469 189.210938 309.578125 C 189.515625 309.796875 189.835938 309.988281 190.179688 310.144531 C 190.519531 310.304688 190.875 310.425781 191.238281 310.515625 C 191.605469 310.601562 191.972656 310.652344 192.351562 310.667969 L 217.097656 311.671875 C 217.472656 311.6875 217.84375 311.738281 218.207031 311.824219 C 218.574219 311.914062 218.925781 312.039062 219.269531 312.195312 C 219.609375 312.351562 219.929688 312.542969 220.234375 312.761719 C 220.539062 312.984375 220.816406 313.234375 221.070312 313.507812 C 221.324219 313.785156 221.550781 314.082031 221.746094 314.402344 C 221.941406 314.722656 222.105469 315.058594 222.234375 315.410156 C 222.363281 315.765625 222.460938 316.125 222.515625 316.496094 C 222.574219 316.867188 222.597656 317.242188 222.582031 317.617188 Z M 222.582031 317.617188 " fill-opacity="1" fill-rule="nonzero"/></g></g></g></g></g></svg>